<?xml version="1.0" encoding="UTF-8"?>
<svg version="1.1" xmlns="http://www.w3.org/2000/svg" width="500" height="500">
<path d="M0 0 C7.38375 -0.309375 14.7675 -0.61875 22.375 -0.9375 C24.6854834 -1.07406006 26.9959668 -1.21062012 29.37646484 -1.35131836 C43.58776112 -1.83223376 43.58776112 -1.83223376 48.0020752 1.52069092 C51.63540299 5.53555063 53.92507498 10.03294758 56 15 C56.87724731 13.7919873 56.87724731 13.7919873 57.7722168 12.55957031 C61.95703125 6.796875 61.95703125 6.796875 64 4 C64.4228125 3.2265625 64.845625 2.453125 65.28125 1.65625 C67 0 67 0 70.57421875 -0.390625 C71.94585748 -0.3641199 73.31721938 -0.3165309 74.6875 -0.25 C75.7403418 -0.22292969 75.7403418 -0.22292969 76.81445312 -0.1953125 C78.54355436 -0.14826213 80.27195205 -0.07651873 82 0 C80.63973512 3.86980072 78.87762274 6.68468356 76.33984375 9.89453125 C65.43516023 24.37484469 61.58633019 34.87932335 63 53 C58.71 53 54.42 53 50 53 C50.1134375 51.5459375 50.226875 50.091875 50.34375 48.59375 C51.05959476 30.15185735 44.29169461 19.16252875 33 5 C32.34 7.31 31.68 9.62 31 12 C25.06 12 19.12 12 13 12 C13 14.97 13 17.94 13 21 C18.61 21 24.22 21 30 21 C30 24.63 30 28.26 30 32 C24.39 32 18.78 32 13 32 C13 38.93 13 45.86 13 53 C8.71 53 4.42 53 0 53 C0 35.51 0 18.02 0 0 Z " fill="#262626" transform="translate(401,213)"/>
<path d="M0 0 C0.79277344 0.01353516 1.58554687 0.02707031 2.40234375 0.04101562 C4.35185564 0.07624777 6.30101626 0.13005179 8.25 0.1875 C8.25 4.1475 8.25 8.1075 8.25 12.1875 C4.29 12.1875 0.33 12.1875 -3.75 12.1875 C-3.75 40.2375 -3.75 68.2875 -3.75 97.1875 C7.14 97.1875 18.03 97.1875 29.25 97.1875 C42.94650587 98.81396007 56.47938267 101.82729891 69.25 107.1875 C69.25 107.8475 69.25 108.5075 69.25 109.1875 C59.5748751 109.25708365 49.89983667 109.31035368 40.22451591 109.34293652 C35.73161846 109.35857653 31.23889251 109.37978433 26.74609375 109.41381836 C22.40835006 109.44647129 18.0707711 109.46436553 13.73291397 109.47213173 C12.07994113 109.4776646 10.42697706 109.48846901 8.77407455 109.50469017 C6.45449254 109.52654371 4.13558676 109.52946368 1.81591797 109.52807617 C-0.16264694 109.53806892 -0.16264694 109.53806892 -2.18118286 109.54826355 C-6.91102058 109.07013509 -10.34518081 107.73764532 -13.5625 104.1875 C-16.13471845 99.85534261 -15.90440829 95.66327655 -15.91113281 90.78808594 C-15.91609772 89.93082413 -15.92106262 89.07356232 -15.92617798 88.19032288 C-15.94079679 85.35083211 -15.94760175 82.51139724 -15.953125 79.671875 C-15.95887743 77.6975301 -15.96463516 75.72318521 -15.97039795 73.74884033 C-15.98090766 69.60615783 -15.98675028 65.46349474 -15.99023438 61.32080078 C-15.99571383 56.02024121 -16.01973031 50.71993919 -16.04820633 45.4194603 C-16.06685994 41.33930724 -16.0720398 37.25921583 -16.07357025 33.17902374 C-16.07659201 31.22545211 -16.08460443 29.27188145 -16.09775543 27.31835175 C-16.11487002 24.58020133 -16.11292229 21.84267486 -16.10644531 19.10449219 C-16.1156601 18.30215652 -16.12487488 17.49982086 -16.1343689 16.673172 C-16.09066715 10.75529998 -15.06590812 5.905935 -11.109375 1.26171875 C-7.45487797 -0.40216649 -3.96007011 -0.12806197 0 0 Z " fill="#181818" transform="translate(43.75,174.8125)"/>
<path d="M0 0 C3.96 0 7.92 0 12 0 C12.09270353 10.34427381 12.16376684 20.6884487 12.20724869 31.0330534 C12.22811847 35.83655666 12.25642499 40.6397756 12.30175781 45.44311523 C12.3452373 50.07912297 12.36914169 54.71485733 12.37950897 59.35105324 C12.38689657 61.11930457 12.40132293 62.88754103 12.42292023 64.65567589 C12.45198273 67.13365316 12.4559549 69.61050261 12.45410156 72.08862305 C12.46848267 72.81870575 12.48286377 73.54878845 12.49768066 74.30099487 C12.4695499 77.77985816 12.08212796 79.86265776 10.28411865 82.86946106 C5.75419475 87.09480166 1.43088792 87.28907671 -4.54418945 87.22705078 C-5.28619095 87.22734283 -6.02819244 87.22763489 -6.79267883 87.22793579 C-9.23300067 87.22654803 -11.67301308 87.21101313 -14.11328125 87.1953125 C-15.81007216 87.1915804 -17.50686522 87.18873436 -19.20365906 87.18673706 C-23.66051222 87.17911613 -28.11723417 87.1594809 -32.57403564 87.1373291 C-37.12551092 87.11683747 -41.67700748 87.10772825 -46.22851562 87.09765625 C-55.15240127 87.07623352 -64.0761897 87.04211619 -73 87 C-71.52491103 84.04982206 -69.19971254 83.84856977 -66.22192383 82.8425293 C-65.42681396 82.58511963 -64.6317041 82.32770996 -63.8125 82.0625 C-63.00256592 81.79671143 -62.19263184 81.53092285 -61.3581543 81.25708008 C-40.59931734 74.60143488 -22.68678782 75 0 75 C0 50.25 0 25.5 0 0 Z " fill="#171717" transform="translate(216,197)"/>
<path d="M0 0 C17.49629464 5.83209821 17.49629464 5.83209821 23.0625 9.125 C23.7131543 9.50043945 24.36380859 9.87587891 25.03417969 10.26269531 C33.84989208 15.50089342 42.85466899 21.7067863 49 30 C45.1017761 28.59466204 41.94359853 26.72860386 38.5 24.4375 C29.46069243 19.08924302 19.65377697 15.13733299 10 11 C10 40.04 10 69.08 10 99 C11.32 99.66 12.64 100.32 14 101 C22.16502019 107.1789342 29.49683128 114.29442615 36.75 121.5 C37.94810303 122.68432617 37.94810303 122.68432617 39.17041016 123.89257812 C40.28488525 125.0130957 40.28488525 125.0130957 41.421875 126.15625 C42.08799805 126.82462891 42.75412109 127.49300781 43.44042969 128.18164062 C45 130 45 130 46 133 C42.45409682 131.71453247 39.69656155 130.19830468 36.6875 127.9375 C32.36928173 124.84939732 27.93948977 122.15007628 23.3125 119.5625 C22.41567505 119.06061157 22.41567505 119.06061157 21.50073242 118.54858398 C14.3826398 114.60881962 7.17828508 110.82841871 0 107 C0 71.69 0 36.38 0 0 Z " fill="#262626" transform="translate(73,140)"/>
<path d="M0 0 C0 35.64 0 71.28 0 108 C-6.27 110.97 -12.54 113.94 -19 117 C-22.5171509 119.03022531 -25.88372911 121.01795011 -29.25 123.25 C-30.01183594 123.73984375 -30.77367187 124.2296875 -31.55859375 124.734375 C-36.13438503 127.6956444 -40.58736323 130.80142202 -45 134 C-45 130.41081272 -44.45417991 130.04469185 -42.0703125 127.5234375 C-41.44463379 126.85691162 -40.81895508 126.19038574 -40.17431641 125.50366211 C-39.49804199 124.80120361 -38.82176758 124.09874512 -38.125 123.375 C-37.43970215 122.65513916 -36.7544043 121.93527832 -36.04833984 121.19360352 C-28.35881095 113.18360235 -20.25620804 105.20405324 -11 99 C-10.34 99 -9.68 99 -9 99 C-9 69.96 -9 40.92 -9 11 C-21.38158889 16.21330058 -32.54456134 21.30724674 -44 28 C-45.32517887 28.68273215 -46.654095 29.35909286 -48 30 C-38.98516455 18.15193055 -15.97555755 0 0 0 Z " fill="#131313" transform="translate(183,140)"/>
<path d="M0 0 C3.3 0 6.6 0 10 0 C10 32.34 10 64.68 10 98 C13.63 98.33 17.26 98.66 21 99 C35.87405008 102.37454106 51.25359028 109.14473561 63 119 C63.33 119.66 63.66 120.32 64 121 C59.56873771 119.53653525 55.14442931 118.06000079 50.74609375 116.5 C33.81015807 110.55401177 18.25225061 108.73830958 0 107 C0 71.69 0 36.38 0 0 Z " fill="#202020" transform="translate(57,159)"/>
<path d="M0 0 C2.97 0 5.94 0 9 0 C9 35.31 9 70.62 9 107 C0.42 107.99 -8.16 108.98 -17 110 C-26.8122495 111.94900846 -35.71371655 114.34563359 -44.91455078 118.1574707 C-49.69637778 120.10120741 -49.69637778 120.10120741 -53 119 C-41.75249681 109.86595854 -29.28321008 103.93324239 -15.375 100 C-14.64144287 99.79221924 -13.90788574 99.58443848 -13.15209961 99.37036133 C-8.40777822 98.12701067 -5.20810409 98 0 98 C0 65.66 0 33.32 0 0 Z " fill="#0E0E0E" transform="translate(190,159)"/>
<path d="M0 0 C10.23 0 20.46 0 31 0 C31 3.96 31 7.92 31 12 C25.06 12 19.12 12 13 12 C13 14.97 13 17.94 13 21 C14.82337891 20.98259766 14.82337891 20.98259766 16.68359375 20.96484375 C18.26822764 20.95546722 19.85286318 20.94636687 21.4375 20.9375 C22.23994141 20.92912109 23.04238281 20.92074219 23.86914062 20.91210938 C25.91295221 20.9034857 27.95683902 20.9477185 30 21 C31 22 31 22 31.09765625 24.28515625 C31.06510417 26.85677083 31.03255208 29.42838542 31 32 C25.06 32 19.12 32 13 32 C13 35.3 13 38.6 13 42 C18.94 42 24.88 42 31 42 C31 45.63 31 49.26 31 53 C20.77 53 10.54 53 0 53 C0 35.51 0 18.02 0 0 Z " fill="#171717" transform="translate(272,213)"/>
<path d="M0 0 C10.23 0 20.46 0 31 0 C31 3.96 31 7.92 31 12 C25.06 12 19.12 12 13 12 C13 14.97 13 17.94 13 21 C18.61 21 24.22 21 30 21 C30 24.63 30 28.26 30 32 C24.39 32 18.78 32 13 32 C13 35.3 13 38.6 13 42 C18.94 42 24.88 42 31 42 C31 45.63 31 49.26 31 53 C20.77 53 10.54 53 0 53 C0 35.51 0 18.02 0 0 Z " fill="#151515" transform="translate(309,213)"/>
<path d="M0 0 C10.56 0 21.12 0 32 0 C32 3.63 32 7.26 32 11 C31 12 31 12 29.23413086 12.11352539 C28.48526611 12.10828857 27.73640137 12.10305176 26.96484375 12.09765625 C26.15595703 12.09443359 25.34707031 12.09121094 24.51367188 12.08789062 C23.66353516 12.07951172 22.81339844 12.07113281 21.9375 12.0625 C21.08349609 12.05798828 20.22949219 12.05347656 19.34960938 12.04882812 C17.23304337 12.03700373 15.11651315 12.01906769 13 12 C13 14.97 13 17.94 13 21 C18.61 21 24.22 21 30 21 C30 24.63 30 28.26 30 32 C24.39 32 18.78 32 13 32 C13 38.93 13 45.86 13 53 C8.71 53 4.42 53 0 53 C0 35.51 0 18.02 0 0 Z " fill="#191919" transform="translate(236,213)"/>
<path d="M0 0 C9.9 0 19.8 0 30 0 C30 3.63 30 7.26 30 11 C24.06 11 18.12 11 12 11 C12 13.97 12 16.94 12 20 C17.61 20 23.22 20 29 20 C29 23.63 29 27.26 29 31 C23.39 31 17.78 31 12 31 C12 37.93 12 44.86 12 52 C8.04 52 4.08 52 0 52 C0 34.84 0 17.68 0 0 Z " fill="#090909" transform="translate(402,214)"/>
<path d="M0 0 C5.61 0 11.22 0 17 0 C17.020625 2.784375 17.04125 5.56875 17.0625 8.4375 C17.071604 9.31591553 17.08070801 10.19433105 17.09008789 11.09936523 C17.09723091 13.06645974 17.05031893 15.03353621 17 17 C14.81008933 19.18991067 9.84784341 18.3876891 6.8828125 18.5234375 C3.6463983 19.05845448 2.94105992 19.45036503 1 22 C0.49753325 24.31250836 0.49753325 24.31250836 0.48828125 26.88671875 C0.45516846 27.73194092 0.42205566 28.57716309 0.38793945 29.44799805 C0.36304443 30.51703369 0.33814941 31.58606934 0.3125 32.6875 C0.209375 36.090625 0.10625 39.49375 0 43 C-8.58 43 -17.16 43 -26 43 C-26 34.42 -26 25.84 -26 17 C-15.75 16.75 -15.75 16.75 -12.53808594 16.70214844 C-7.17310494 16.52849834 -7.17310494 16.52849834 -2.375 14.34375 C-0.63572578 11.37907803 -0.39884463 9.17342646 -0.25 5.75 C-0.1675 3.8525 -0.085 1.955 0 0 Z " fill="#0F0F0F" transform="translate(242,144)"/>
<path d="M0 0 C4.29 0 8.58 0 13 0 C13 13.86 13 27.72 13 42 C18.94 42 24.88 42 31 42 C31 45.63 31 49.26 31 53 C20.77 53 10.54 53 0 53 C0 35.51 0 18.02 0 0 Z " fill="#151515" transform="translate(346,213)"/>
<path d="M0 0 C4.95 0 9.9 0 15 0 C15.495 2.475 15.495 2.475 16 5 C16.61520508 4.97905273 17.23041016 4.95810547 17.86425781 4.93652344 C20.65933809 4.85322983 23.45415715 4.80129987 26.25 4.75 C27.21808594 4.71648437 28.18617188 4.68296875 29.18359375 4.6484375 C36.33721054 4.54976692 36.33721054 4.54976692 39.6796875 6.8203125 C41 9 41 9 40.875 12.125 C40 15 40 15 38 17 C35.46388245 17.26069641 35.46388245 17.26069641 32.22094727 17.2746582 C30.40379967 17.28895622 30.40379967 17.28895622 28.54994202 17.30354309 C27.23537521 17.30263168 25.92080841 17.30172028 24.56640625 17.30078125 C23.20881519 17.30466705 21.85122534 17.30900148 20.49363708 17.31376648 C17.64635276 17.32123395 14.79919241 17.3209338 11.9519043 17.31567383 C8.30207465 17.30988013 4.65275263 17.32680455 1.00300694 17.3500185 C-1.80140656 17.36474725 -4.60569758 17.36562873 -7.4101429 17.36250877 C-9.41044979 17.36327241 -11.41073768 17.37715432 -13.41099548 17.39118958 C-15.23287132 17.38184639 -15.23287132 17.38184639 -17.09155273 17.37231445 C-18.69799904 17.37325859 -18.69799904 17.37325859 -20.3368988 17.3742218 C-23 17 -23 17 -24.84584045 15.66423035 C-26.64624499 13.06815264 -26.38315656 11.06525246 -26 8 C-24.7956543 6.33081055 -24.7956543 6.33081055 -23 5 C-20.63989258 4.65942383 -20.63989258 4.65942383 -17.89453125 4.70703125 C-16.91162109 4.71669922 -15.92871094 4.72636719 -14.91601562 4.73632812 C-13.89185547 4.76146484 -12.86769531 4.78660156 -11.8125 4.8125 C-10.77673828 4.82603516 -9.74097656 4.83957031 -8.67382812 4.85351562 C-6.11536301 4.88888611 -3.5579422 4.93824456 -1 5 C-0.67 3.35 -0.34 1.7 0 0 Z " fill="#191919" transform="translate(121,290)"/>
<path d="M0 0 C4.29 0 8.58 0 13 0 C13 17.49 13 34.98 13 53 C8.71 53 4.42 53 0 53 C0 35.51 0 18.02 0 0 Z " fill="#171717" transform="translate(382,213)"/>
<path d="M0 0 C3.3 0 6.6 0 10 0 C10 3.63 10 7.26 10 11 C6.7 11 3.4 11 0 11 C0 7.37 0 3.74 0 0 Z " fill="#1F1F1F" transform="translate(230,132)"/>
<path d="M0 0 C8.29753218 4.84691435 15.10548725 10.37219954 22 17 C17.80894673 17 15.13206953 14.8466325 11.6875 12.6875 C7.2071888 9.90890938 2.76312783 7.28187054 -2 5 C-1.34 4.01 -0.68 3.02 0 2 C0 1.34 0 0.68 0 0 Z " fill="#464646" transform="translate(100,152)"/>
<path d="M0 0 C0 3 0 3 -1.28515625 4.578125 C-1.87167969 5.12984375 -2.45820313 5.6815625 -3.0625 6.25 C-3.69414062 6.8584375 -4.32578125 7.466875 -4.9765625 8.09375 C-6.32552083 9.36458333 -7.67447917 10.63541667 -9.0234375 11.90625 C-9.65507812 12.5146875 -10.28671875 13.123125 -10.9375 13.75 C-11.52402344 14.30171875 -12.11054688 14.8534375 -12.71484375 15.421875 C-14.31572966 17.0485018 -14.31572966 17.0485018 -14 20 C-15.96875 21.60546875 -15.96875 21.60546875 -18.5 23.1875 C-19.3353125 23.71730469 -20.170625 24.24710937 -21.03125 24.79296875 C-21.6809375 25.19128906 -22.330625 25.58960938 -23 26 C-23 22.38462432 -22.4082652 21.99712389 -20 19.453125 C-19.03900391 18.4321875 -19.03900391 18.4321875 -18.05859375 17.390625 C-17.37925781 16.68421875 -16.69992188 15.9778125 -16 15.25 C-15.35160156 14.5590625 -14.70320312 13.868125 -14.03515625 13.15625 C-9.59359484 8.47721897 -4.92653029 4.16331117 0 0 Z " fill="#5A5A5A" transform="translate(161,248)"/>
<path d="M0 0 C0.66 0.33 1.32 0.66 2 1 C1.01 1.99 0.02 2.98 -1 4 C-0.34 4.66 0.32 5.32 1 6 C-1.58267413 7.45951119 -4.16610741 8.91764881 -6.75 10.375 C-7.84441406 10.99375 -7.84441406 10.99375 -8.9609375 11.625 C-9.66992188 12.02460938 -10.37890625 12.42421875 -11.109375 12.8359375 C-12.08342285 13.38580322 -12.08342285 13.38580322 -13.07714844 13.94677734 C-15.02837191 15.01554043 -17.00410556 16.01758503 -19 17 C-13.67766322 10.00492881 -7.01562037 5.17323935 0 0 Z " fill="#5F5F5F" transform="translate(154,153)"/>
<path d="M0 0 C0.66 0.33 1.32 0.66 2 1 C1.34 1.66 0.68 2.32 0 3 C0.66 3.66 1.32 4.32 2 5 C0.40084119 5.69906942 -1.20455045 6.38389468 -2.8125 7.0625 C-3.70582031 7.44535156 -4.59914062 7.82820313 -5.51953125 8.22265625 C-8 9 -8 9 -11 8 C-7.37 5.36 -3.74 2.72 0 0 Z " fill="#636363" transform="translate(148,270)"/>
<path d="M0 0 C0.33 0.99 0.66 1.98 1 3 C1.66 3.33 2.32 3.66 3 4 C-1.455 6.97 -1.455 6.97 -6 10 C-6 6.41087588 -5.33563446 5.89142971 -3 3.3125 C-2.443125 2.68988281 -1.88625 2.06726563 -1.3125 1.42578125 C-0.879375 0.95527344 -0.44625 0.48476563 0 0 Z " fill="#7D7D7D" transform="translate(144,264)"/>
<path d="M0 0 C2 1 2 1 3 3 C-1.455 5.97 -1.455 5.97 -6 9 C-6.66 8.67 -7.32 8.34 -8 8 C-5.36 5.36 -2.72 2.72 0 0 Z " fill="#8C8C8C" transform="translate(143,161)"/>
<path d="M0 0 C3.91402949 1.26941497 5.79072873 2.51167694 8 6 C5.03 5.01 2.06 4.02 -1 3 C-0.67 2.01 -0.34 1.02 0 0 Z " fill="#898989" transform="translate(113,274)"/>
<path d="M0 0 C0.66 0.33 1.32 0.66 2 1 C1.3125 2.9375 1.3125 2.9375 0 5 C-2.625 5.75 -2.625 5.75 -5 6 C-2.25 1.125 -2.25 1.125 0 0 Z " fill="#3E3E3E" transform="translate(149,157)"/>
<path d="M0 0 C2.31 1.98 4.62 3.96 7 6 C3.09161134 6 1.88405893 4.49432124 -1 2 C-0.67 1.34 -0.34 0.68 0 0 Z " fill="#A8A8A8" transform="translate(115,163)"/>
<path d="" fill="#D5D5D5" transform="translate(0,0)"/>
<path d="" fill="#CFCFCF" transform="translate(0,0)"/>
</svg>
