<?xml version="1.0" encoding="UTF-8"?>
<svg version="1.1" xmlns="http://www.w3.org/2000/svg" width="500" height="500">
<path d="M0 0 C6.125625 -0.226875 12.25125 -0.45375 18.5625 -0.6875 C21.44270874 -0.83771606 21.44270874 -0.83771606 24.38110352 -0.9909668 C36.51020759 -1.35540738 36.51020759 -1.35540738 40.70654297 2.46240234 C42.44509046 5.24849569 43.72985693 7.98084643 45 11 C45.66 11.33 46.32 11.66 47 12 C47.3403125 10.9790625 47.3403125 10.9790625 47.6875 9.9375 C48.120625 8.968125 48.55375 7.99875 49 7 C49.26039063 6.37609375 49.52078125 5.7521875 49.7890625 5.109375 C51.00628539 2.82359767 51.8889815 1.53135358 54 0 C58.39043426 -0.60741445 62.59643056 -0.40618576 67 0 C64.77550705 4.32019946 62.48884587 8.44573474 59.4765625 12.26953125 C51.76502551 22.31562642 50.54099158 30.45827006 51 43 C47.37 43 43.74 43 40 43 C40.06703125 41.76507813 40.1340625 40.53015625 40.203125 39.2578125 C40.50146004 24.74748771 36.05439284 16.1332179 27 5 C26.67 6.32 26.34 7.64 26 9 C21.05 9 16.1 9 11 9 C11 11.64 11 14.28 11 17 C15.62 17 20.24 17 25 17 C25 19.97 25 22.94 25 26 C20.38 26 15.76 26 11 26 C11 31.61 11 37.22 11 43 C7.37 43 3.74 43 0 43 C0 28.81 0 14.62 0 0 Z " fill="#292929" transform="translate(341,220)"/>
<path d="M0 0 C0.99386719 0.00902344 1.98773438 0.01804688 3.01171875 0.02734375 C4.15060547 0.04474609 4.15060547 0.04474609 5.3125 0.0625 C5.3125 3.0325 5.3125 6.0025 5.3125 9.0625 C2.3425 9.0625 -0.6275 9.0625 -3.6875 9.0625 C-3.6875 29.5225 -3.6875 49.9825 -3.6875 71.0625 C5.5525 71.0625 14.7925 71.0625 24.3125 71.0625 C33.17644888 72.71028537 40.97780471 74.85896624 49.3125 78.0625 C49.3125 78.3925 49.3125 78.7225 49.3125 79.0625 C41.94981904 79.15523534 34.58726427 79.22628235 27.22411728 79.26974869 C23.8049632 79.29061201 20.38620906 79.31890505 16.96728516 79.36425781 C13.03553069 79.41608618 9.10393743 79.43545578 5.171875 79.453125 C3.33263458 79.48409271 3.33263458 79.48409271 1.45623779 79.51568604 C0.31535706 79.51598816 -0.82552368 79.51629028 -2.00097656 79.51660156 C-3.00469299 79.52548401 -4.00840942 79.53436646 -5.0425415 79.54351807 C-8.53455738 78.90845225 -9.65997963 77.96310846 -11.6875 75.0625 C-12.18870544 71.95092773 -12.18870544 71.95092773 -12.18920898 68.24609375 C-12.19461197 67.56918488 -12.20001495 66.892276 -12.20558167 66.19485474 C-12.21806402 63.96278832 -12.20158316 61.73201314 -12.18359375 59.5 C-12.18374875 57.94588147 -12.18523793 56.39176256 -12.18800354 54.83764648 C-12.1893873 51.58267093 -12.17683393 48.32813614 -12.15405273 45.07324219 C-12.12566774 40.90339438 -12.12840551 36.73427883 -12.14114285 32.56437683 C-12.14810172 29.35585285 -12.14030844 26.14749778 -12.12788582 22.93899536 C-12.12337332 21.40162809 -12.12303277 19.86424268 -12.12695122 18.32687378 C-12.1298656 16.17717394 -12.11334748 14.02847901 -12.09155273 11.87890625 C-12.08614975 10.65631104 -12.08074677 9.43371582 -12.07518005 8.17407227 C-11.65563553 4.80675151 -11.08506725 3.42289447 -8.6875 1.0625 C-5.53819107 0.01273036 -3.29935544 -0.03881595 0 0 Z " fill="#0B0B0B" transform="translate(40.6875,195.9375)"/>
<path d="M0 0 C2.97 0 5.94 0 9 0 C9.09273004 7.49305014 9.16378 14.9860407 9.20724869 22.47953415 C9.22811308 25.9592187 9.25640821 29.43851033 9.30175781 32.91796875 C9.35358227 36.91930893 9.37295453 40.92023719 9.390625 44.921875 C9.41127014 46.16990906 9.43191528 47.41794312 9.45318604 48.70379639 C9.45348816 49.86469788 9.45379028 51.02559937 9.45410156 52.22167969 C9.46298401 53.24316101 9.47186646 54.26464233 9.48101807 55.31707764 C8.85655878 58.80005658 7.86082477 59.95031502 5 62 C2.3550415 62.48101807 2.3550415 62.48101807 -0.68652344 62.45410156 C-1.82740417 62.45379944 -2.96828491 62.45349731 -4.14373779 62.45318604 C-5.36989807 62.43254089 -6.59605835 62.41189575 -7.859375 62.390625 C-9.11888977 62.38496521 -10.37840454 62.37930542 -11.67608643 62.37347412 C-15.01709024 62.35488047 -18.35699467 62.31897328 -21.69769287 62.2746582 C-25.10956339 62.23366502 -28.52154769 62.21545459 -31.93359375 62.1953125 C-38.6226992 62.15119664 -45.31128614 62.0842465 -52 62 C-49.11253126 59.11253126 -45.58248707 58.52283457 -41.75 57.4375 C-40.99847656 57.21642578 -40.24695313 56.99535156 -39.47265625 56.76757812 C-25.97807792 52.86992941 -15.28538396 54 0 54 C0 36.18 0 18.36 0 0 Z " fill="#151515" transform="translate(164,213)"/>
<path d="M0 0 C8.25 0 16.5 0 25 0 C25 2.97 25 5.94 25 9 C20.05 9 15.1 9 10 9 C10 11.64 10 14.28 10 17 C14.62 17 19.24 17 24 17 C24 19.97 24 22.94 24 26 C19.38 26 14.76 26 10 26 C10 28.64 10 31.28 10 34 C14.95 34 19.9 34 25 34 C25 36.97 25 39.94 25 43 C16.75 43 8.5 43 0 43 C0 28.81 0 14.62 0 0 Z " fill="#0C0C0C" transform="translate(266,220)"/>
<path d="M0 0 C8.25 0 16.5 0 25 0 C25 2.97 25 5.94 25 9 C20.05 9 15.1 9 10 9 C10 11.64 10 14.28 10 17 C14.62 17 19.24 17 24 17 C24 19.97 24 22.94 24 26 C19.38 26 14.76 26 10 26 C10 28.64 10 31.28 10 34 C14.95 34 19.9 34 25 34 C25 36.97 25 39.94 25 43 C16.75 43 8.5 43 0 43 C0 28.81 0 14.62 0 0 Z " fill="#0C0C0C" transform="translate(236,220)"/>
<path d="M0 0 C0 25.74 0 51.48 0 78 C-9.405 82.95 -9.405 82.95 -19 88 C-23.42345649 90.948971 -27.74806393 93.83967409 -32 97 C-32.66 96.67 -33.32 96.34 -34 96 C-18.67297586 78.77895196 -18.67297586 78.77895196 -10.39241028 73.26300049 C-7.7630104 71.20502012 -7.7630104 71.20502012 -7.39872742 68.16522217 C-7.40983047 67.07268127 -7.42093353 65.98014038 -7.43237305 64.85449219 C-7.4327507 63.61350769 -7.43312836 62.37252319 -7.43351746 61.09393311 C-7.45904863 59.74490349 -7.48512858 58.39588416 -7.51171875 57.046875 C-7.52104869 55.66254962 -7.52816396 54.27820768 -7.53315735 52.89385986 C-7.5522137 49.25693882 -7.60130021 45.62102226 -7.65667725 41.98449707 C-7.70790066 38.27105294 -7.73067783 34.55744588 -7.75585938 30.84375 C-7.80942244 23.56204293 -7.89471603 16.28116241 -8 9 C-9.92980604 9.79561467 -11.85876167 10.59329228 -13.78735352 11.3918457 C-14.86163101 11.83583206 -15.93590851 12.27981842 -17.04273987 12.73725891 C-20.12181969 14.05201664 -23.0350848 15.51939388 -25.9375 17.1875 C-29.22948679 19.06934464 -32.44999906 20.66001753 -36 22 C-27.27772816 13.0134169 -13.34926348 0 0 0 Z " fill="#1E1E1E" transform="translate(141,171)"/>
<path d="M0 0 C14.15810266 5.14840097 24.45146649 10.49374518 35 21 C31.4927409 21 30.57164461 20.26544773 27.6875 18.375 C20.82997785 14.13870228 20.82997785 14.13870228 8 9 C7.67 29.79 7.34 50.58 7 72 C8.32 72.66 9.64 73.32 11 74 C19.91009792 80.69962952 27.76705587 87.74502235 34 97 C29.80287517 95.51774402 26.29180213 93.34776264 22.625 90.875 C15.28608968 85.95320095 7.9526117 82.24139291 0 78 C0 52.26 0 26.52 0 0 Z " fill="#232323" transform="translate(61,171)"/>
<path d="M0 0 C2.31 0 4.62 0 7 0 C7 23.43 7 46.86 7 71 C10.3 71.33 13.6 71.66 17 72 C19.76118663 72.78589648 22.28886349 73.58152652 24.9375 74.625 C25.95565796 75.01606934 25.95565796 75.01606934 26.99438477 75.41503906 C42.26035269 81.52070537 42.26035269 81.52070537 45 87 C40.65548195 86.25354806 36.55358877 84.93005619 32.375 83.5625 C21.5042674 80.10379874 11.55243714 78.88864901 0 78 C0 52.26 0 26.52 0 0 Z " fill="#222222" transform="translate(50,185)"/>
<path d="M0 0 C2.31 0 4.62 0 7 0 C7 25.74 7 51.48 7 78 C-2.9 78.99 -2.9 78.99 -13 80 C-16.48655909 80.73899894 -19.65026573 81.44117595 -23 82.5 C-23.73476562 82.71269531 -24.46953125 82.92539062 -25.2265625 83.14453125 C-28.04865397 83.98089654 -30.70383409 84.84391256 -33.3125 86.21875 C-35 87 -35 87 -38 86 C-27.39941967 77.56942082 -13.69177279 71 0 71 C0 47.57 0 24.14 0 0 Z " fill="#1E1E1E" transform="translate(145,185)"/>
<path d="M0 0 C8.58 0 17.16 0 26 0 C26 2.97 26 5.94 26 9 C21.05 9 16.1 9 11 9 C11 11.64 11 14.28 11 17 C15.62 17 20.24 17 25 17 C25 19.97 25 22.94 25 26 C20.38 26 15.76 26 11 26 C11 31.61 11 37.22 11 43 C7.37 43 3.74 43 0 43 C0 28.81 0 14.62 0 0 Z " fill="#191919" transform="translate(206,220)"/>
<path d="M0 0 C7.92 0 15.84 0 24 0 C24 2.31 24 4.62 24 7 C19.05 7 14.1 7 9 7 C9 10.3 9 13.6 9 17 C13.62 17 18.24 17 23 17 C23 19.64 23 22.28 23 25 C18.71 25 14.42 25 10 25 C10 30.61 10 36.22 10 42 C6.7 42 3.4 42 0 42 C0 28.14 0 14.28 0 0 Z " fill="#060606" transform="translate(342,221)"/>
<path d="M0 0 C3.3 0 6.6 0 10 0 C10 11.22 10 22.44 10 34 C14.95 34 19.9 34 25 34 C25 36.97 25 39.94 25 43 C16.75 43 8.5 43 0 43 C0 28.81 0 14.62 0 0 Z " fill="#0B0B0B" transform="translate(296,220)"/>
<path d="M0 0 C3.96 0 7.92 0 12 0 C12 4.29 12 8.58 12 13 C9.72135417 13.1953125 7.44270833 13.390625 5.1640625 13.5859375 C2.79665809 13.82892588 2.79665809 13.82892588 1 16 C0.69309346 18.57685678 0.48985507 21.04103303 0.375 23.625 C0.25125 26.05875 0.1275 28.4925 0 31 C-6.27 31 -12.54 31 -19 31 C-19 24.73 -19 18.46 -19 12 C-11.125 11.625 -11.125 11.625 -8.64892578 11.52197266 C-4.36288412 11.41504221 -4.36288412 11.41504221 -1 9 C-0.53993654 6.79749008 -0.53993654 6.79749008 -0.375 4.375 C-0.189375 2.209375 -0.189375 2.209375 0 0 Z " fill="#101010" transform="translate(183,174)"/>
<path d="M0 0 C3.63 0 7.26 0 11 0 C11 14.19 11 28.38 11 43 C7.37 43 3.74 43 0 43 C0 28.81 0 14.62 0 0 Z " fill="#1F1F1F" transform="translate(325,220)"/>
<path d="M0 0 C1.051875 -0.00386719 1.051875 -0.00386719 2.125 -0.0078125 C4 0.125 4 0.125 6 1.125 C6 2.445 6 3.765 6 5.125 C7.21558594 5.11339844 8.43117187 5.10179687 9.68359375 5.08984375 C11.26822764 5.08046722 12.85286318 5.07136687 14.4375 5.0625 C15.23994141 5.05412109 16.04238281 5.04574219 16.86914062 5.03710938 C18.91295221 5.0284857 20.95683902 5.0727185 23 5.125 C24 6.125 24 6.125 24.125 9.125 C24 12.125 24 12.125 23 13.125 C21.56259647 13.22313987 20.12043673 13.2529828 18.6796875 13.25439453 C17.76203613 13.25754669 16.84438477 13.26069885 15.89892578 13.26394653 C14.90103027 13.2619223 13.90313477 13.25989807 12.875 13.2578125 C11.85776855 13.25876923 10.84053711 13.25972595 9.79248047 13.26071167 C7.63704364 13.26139361 5.48160478 13.25953835 3.32617188 13.25537109 C0.01427629 13.25002305 -3.29748367 13.25531563 -6.609375 13.26171875 C-8.69791697 13.26105797 -10.78645885 13.25977681 -12.875 13.2578125 C-14.37184326 13.26084885 -14.37184326 13.26084885 -15.89892578 13.26394653 C-16.81657715 13.26079437 -17.73422852 13.25764221 -18.6796875 13.25439453 C-19.49163574 13.25359894 -20.30358398 13.25280334 -21.14013672 13.25198364 C-23 13.125 -23 13.125 -24 12.125 C-24.125 9.125 -24.125 9.125 -24 6.125 C-23 5.125 -23 5.125 -19.18359375 5.02734375 C-17.60153318 5.03401911 -16.01948841 5.04598125 -14.4375 5.0625 C-13.63119141 5.06701172 -12.82488281 5.07152344 -11.99414062 5.07617188 C-9.99606244 5.08799482 -7.99802217 5.10593086 -6 5.125 C-6 3.805 -6 2.485 -6 1.125 C-3.75487738 0.00243869 -2.48543351 -0.00913762 0 0 Z " fill="#171717" transform="translate(101,278.875)"/>
<path d="M0 0 C0.721875 0.391875 1.44375 0.78375 2.1875 1.1875 C-1.08970949 3.80766505 -4.55431624 5.77184788 -8.25 7.75 C-9.36246094 8.34941406 -10.47492188 8.94882813 -11.62109375 9.56640625 C-14.31870133 10.93667203 -16.98304034 12.12446936 -19.8125 13.1875 C-5.47712481 -1.5822805 -5.47712481 -1.5822805 0 0 Z " fill="#484848" transform="translate(124.8125,179.8125)"/>
<path d="M0 0 C3 0.125 3 0.125 4 1.125 C4.04092937 3.45797433 4.04241723 5.79205225 4 8.125 C1.36 8.125 -1.28 8.125 -4 8.125 C-4.04241723 5.79205225 -4.04092937 3.45797433 -4 1.125 C-3 0.125 -3 0.125 0 0 Z " fill="#2F2F2F" transform="translate(178,164.875)"/>
<path d="M0 0 C0.66 0.33 1.32 0.66 2 1 C1.67 1.33 1.34 1.66 1 2 C1.66 2.66 2.32 3.32 3 4 C1.40084119 4.69906942 -0.20455045 5.38389468 -1.8125 6.0625 C-2.70582031 6.44535156 -3.59914063 6.82820313 -4.51953125 7.22265625 C-7 8 -7 8 -10 7 C-6.7 4.69 -3.4 2.38 0 0 Z " fill="#6F6F6F" transform="translate(117,264)"/>
<path d="M0 0 C4.63720719 3.27530896 8.68542782 6.30435607 12 11 C9.03216871 9.54331217 6.13584687 7.98767914 3.25 6.375 C2.45078125 5.92898437 1.6515625 5.48296875 0.828125 5.0234375 C0.22484375 4.68570313 -0.3784375 4.34796875 -1 4 C-0.67 2.68 -0.34 1.36 0 0 Z " fill="#747474" transform="translate(84,182)"/>
<path d="M0 0 C0.66 0.33 1.32 0.66 2 1 C-1.3 4.3 -4.6 7.6 -8 11 C-8.66 10.34 -9.32 9.68 -10 9 C-6.7 6.03 -3.4 3.06 0 0 Z " fill="#555555" transform="translate(128,246)"/>
<path d="M0 0 C2 1 2 1 3 3 C1.3811004 4.03048037 -0.24532489 5.04914678 -1.875 6.0625 C-2.77992187 6.63097656 -3.68484375 7.19945312 -4.6171875 7.78515625 C-5.40351562 8.18605469 -6.18984375 8.58695313 -7 9 C-7.66 8.67 -8.32 8.34 -9 8 C-6.03 5.36 -3.06 2.72 0 0 Z " fill="#858585" transform="translate(114,184)"/>
<path d="M0 0 C1.79244141 0.01740234 1.79244141 0.01740234 3.62109375 0.03515625 C5.41740234 0.04869141 5.41740234 0.04869141 7.25 0.0625 C8.17683594 0.07410156 9.10367187 0.08570313 10.05859375 0.09765625 C9.06859375 1.58265625 9.06859375 1.58265625 8.05859375 3.09765625 C8.05859375 2.43765625 8.05859375 1.77765625 8.05859375 1.09765625 C2.19410921 1.35318935 -1.59898196 1.75523196 -5.94140625 6.09765625 C-3.64266867 0.12093853 -3.64266867 0.12093853 0 0 Z " fill="#595959" transform="translate(397.94140625,219.90234375)"/>
<path d="M0 0 C0.33 0.66 0.66 1.32 1 2 C1.66 2.33 2.32 2.66 3 3 C0.69 4.65 -1.62 6.3 -4 8 C-4.66 7.67 -5.32 7.34 -6 7 C-4.02 4.69 -2.04 2.38 0 0 Z " fill="#828282" transform="translate(113,260)"/>
<path d="M0 0 C2.64752004 2.57784846 4.94432065 4.91648098 7 8 C3.06326356 6.68775452 0.77280706 5.08089673 -2 2 C-1.34 2 -0.68 2 0 2 C0 1.34 0 0.68 0 0 Z " fill="#818181" transform="translate(88,260)"/>
<path d="" fill="#EDEDED" transform="translate(0,0)"/>
</svg>
