<?xml version="1.0" encoding="UTF-8"?>
<svg version="1.1" xmlns="http://www.w3.org/2000/svg" width="500" height="500">
<path d="M0 0 C0.33 23.43 0.66 46.86 1 71 C1.66 69.68 2.32 68.36 3 67 C3.02684679 69.64590014 3.04676357 72.29153096 3.0625 74.9375 C3.07087891 75.69224609 3.07925781 76.44699219 3.08789062 77.22460938 C3.09652441 79.14994313 3.05224333 81.07535581 3 83 C2.67 83.33 2.34 83.66 2 84 C2.99 84.495 2.99 84.495 4 85 C3.90777862 78.36115171 3.80047937 71.7226708 3.68261719 65.08422852 C3.64429779 62.82517041 3.60945019 60.56605068 3.578125 58.30688477 C3.53253893 55.06243843 3.47453362 51.81841752 3.4140625 48.57421875 C3.40251129 47.56163498 3.39096008 46.54905121 3.37905884 45.50578308 C3.35918915 44.56503433 3.33931946 43.62428558 3.31884766 42.6550293 C3.30552399 41.82674118 3.29220032 40.99845306 3.2784729 40.14506531 C3.12261241 37.70403867 3.12261241 37.70403867 1 35 C0.77294922 32.73168945 0.77294922 32.73168945 0.8046875 30.11328125 C0.81113281 29.17548828 0.81757813 28.23769531 0.82421875 27.27148438 C0.84097656 26.29501953 0.85773438 25.31855469 0.875 24.3125 C0.88402344 23.32443359 0.89304688 22.33636719 0.90234375 21.31835938 C0.92591434 18.87880294 0.96178531 16.43937099 1 14 C4.3 14 7.6 14 11 14 C11.00586624 14.92850266 11.01173248 15.85700531 11.01777649 16.81364441 C11.07570511 25.56836268 11.14778292 34.32282588 11.23571491 43.07729626 C11.28042263 47.57796116 11.31967784 52.07853545 11.34643555 56.5793457 C11.37246458 60.92373971 11.41286403 65.26778512 11.46318626 69.61196327 C11.47985771 71.26848321 11.49137027 72.92506344 11.49761391 74.5816555 C11.50725217 76.90401028 11.53530677 79.22547273 11.56762695 81.54760742 C11.56619186 82.23093643 11.56475677 82.91426544 11.5632782 83.61830139 C11.64736715 87.89670686 12.49145928 90.5356292 15 94 C10.545 94.495 10.545 94.495 6 95 C11.61 95.33 17.22 95.66 23 96 C23 78.18 23 60.36 23 42 C25.97 42 28.94 42 32 42 C32.09281004 49.34540978 32.1638202 56.69069248 32.20724869 64.03657055 C32.22809576 67.44784999 32.25635897 70.85872734 32.30175781 74.26977539 C32.35365959 78.19412369 32.37296922 82.11831096 32.390625 86.04296875 C32.41127014 87.26396774 32.43191528 88.48496674 32.45318604 89.7429657 C32.45363922 91.45417351 32.45363922 91.45417351 32.45410156 93.19995117 C32.46298401 94.20144699 32.47186646 95.20294281 32.48101807 96.23478699 C31.84842852 99.87133406 30.69140449 101.49249949 28 104 C25.27911377 104.63923645 25.27911377 104.63923645 22.12988281 104.65942383 C20.94896057 104.67906693 19.76803833 104.69871002 18.55133057 104.71894836 C17.28142273 104.71501572 16.01151489 104.71108307 14.703125 104.70703125 C13.39921814 104.72215256 12.09531128 104.73727386 10.75189209 104.75285339 C7.29288106 104.79268921 3.83439646 104.80289271 0.37518311 104.80688477 C-3.15759232 104.81621919 -6.69005878 104.85363443 -10.22265625 104.88867188 C-17.1483936 104.95323233 -24.07398009 104.98648493 -31 105 C-31.33 104.01 -31.66 103.02 -32 102 C-31.505 101.505 -31.505 101.505 -31 101 C-31.99 100.67 -32.98 100.34 -34 100 C-33.01 98.68 -32.02 97.36 -31 96 C-32.485 96.495 -32.485 96.495 -34 97 C-34 95 -34 95 -32 92.875 C-31.55011719 92.44574219 -31.10023437 92.01648438 -30.63671875 91.57421875 C-29.38651837 90.37175872 -28.16497738 89.13943176 -26.95703125 87.89453125 C-26.24933594 87.16621094 -25.54164062 86.43789063 -24.8125 85.6875 C-24.13832031 84.99011719 -23.46414062 84.29273438 -22.76953125 83.57421875 C-21 82 -21 82 -19 82 C-19 81.34 -19 80.68 -19 80 C-16.8828125 78.0546875 -16.8828125 78.0546875 -14.125 75.875 C-12.76761719 74.78832031 -12.76761719 74.78832031 -11.3828125 73.6796875 C-9 72 -9 72 -7 72 C-7.33 51.21 -7.66 30.42 -8 9 C-17.25023044 12.74863544 -17.25023044 12.74863544 -25.9375 17.1875 C-29.22948679 19.06934464 -32.44999906 20.66001753 -36 22 C-27.79034974 13.26069488 -12.77704423 0 0 0 Z M-4 79 C-4.66 79.66 -5.32 80.32 -6 81 C-4.02 81.66 -2.04 82.32 0 83 C0.33 82.01 0.66 81.02 1 80 C-1.39719432 79.32041397 -1.39719432 79.32041397 -4 79 Z M-13 87 C-13.66 87.66 -14.32 88.32 -15 89 C-14.01 89 -13.02 89 -12 89 C-12.33 88.34 -12.66 87.68 -13 87 Z M-18 89 C-18.33 89.66 -18.66 90.32 -19 91 C-17.68 90.34 -16.36 89.68 -15 89 C-15.99 89 -16.98 89 -18 89 Z M-2 92 C-2.33 92.66 -2.66 93.32 -3 94 C-1.02 93.67 0.96 93.34 3 93 C3 92.67 3 92.34 3 92 C1.35 92 -0.3 92 -2 92 Z M-14 94 C-10 95 -10 95 -10 95 Z M-9.6875 95.9375 C-10.49574219 96.13214844 -11.30398437 96.32679688 -12.13671875 96.52734375 C-12.75160156 96.68332031 -13.36648437 96.83929688 -14 97 C-10.86774164 98.00881294 -8.903292 97.95593273 -5.75 97.0625 C-4.5125 96.711875 -3.275 96.36125 -2 96 C-5.29696105 94.90101298 -6.40494903 95.12875556 -9.6875 95.9375 Z M-24.3125 99.5 C-25.19550781 99.7784375 -26.07851562 100.056875 -26.98828125 100.34375 C-27.65214844 100.5603125 -28.31601563 100.776875 -29 101 C-29 101.33 -29 101.66 -29 102 C-23.76119922 101.44854729 -19.02649303 100.57077907 -14 99 C-14 98.67 -14 98.34 -14 98 C-17.76268444 97.83728932 -20.73223386 98.35431484 -24.3125 99.5 Z " fill="#D6D7D7" transform="translate(141,171)"/>
<path d="M0 0 C12.14659242 4.4169427 26.45537339 9.68306009 34 21 C28.76189941 19.03571228 23.86006726 16.45641802 18.8828125 13.921875 C17.85800781 13.40367187 17.85800781 13.40367187 16.8125 12.875 C16.20019531 12.56304687 15.58789062 12.25109375 14.95703125 11.9296875 C12.68420865 10.84998335 10.33627386 9.93450954 8 9 C7.67 29.79 7.34 50.58 7 72 C8.32 72.66 9.64 73.32 11 74 C18.87504855 80.36281097 25.90407965 87.79434892 33 95 C32.67 95.66 32.34 96.32 32 97 C30.68 96.01 29.36 95.02 28 94 C27.67 94.66 27.34 95.32 27 96 C27.598125 96.268125 28.19625 96.53625 28.8125 96.8125 C30.97224808 97.98493467 32.35790256 99.19369282 34 101 C29.15311808 100.21824485 24.6233633 98.60155722 20 97 C20 97.33 20 97.66 20 98 C18.80503906 97.86722656 17.61007813 97.73445313 16.37890625 97.59765625 C15.55664551 97.50629395 14.73438477 97.41493164 13.88720703 97.32080078 C3.52270508 96.16918945 3.52270508 96.16918945 -6.84179688 95.01757812 C-8.01935547 94.88673828 -9.19691406 94.75589844 -10.41015625 94.62109375 C-11.48402588 94.5017749 -12.55789551 94.38245605 -13.66430664 94.25952148 C-14.43508545 94.17387939 -15.20586426 94.0882373 -16 94 C-14.625 92.5 -14.625 92.5 -13 91 C-12.34 91 -11.68 91 -11 91 C-11 65.59 -11 40.18 -11 14 C-8.69 14 -6.38 14 -4 14 C-3.67 34.13 -3.34 54.26 -3 75 C-2.01 74.505 -2.01 74.505 -1 74 C-0.67 49.58 -0.34 25.16 0 0 Z M-1 79 C-0.67 80.32 -0.34 81.64 0 83 C1.65 83.33 3.3 83.66 5 84 C5 83.01 5 82.02 5 81 C4.34 81 3.68 81 3 81 C2.67 80.34 2.34 79.68 2 79 C1.01 79 0.02 79 -1 79 Z M-4 83 C-4 83.66 -4 84.32 -4 85 C-2.68 84.67 -1.36 84.34 0 84 C-1.32 83.67 -2.64 83.34 -4 83 Z M6 86 C9.18762365 88.12508244 11.26512223 88.5020163 15 89 C12.23776722 86.23776722 9.79293383 86.42143709 6 86 Z M-5 92 C-5 92.33 -5 92.66 -5 93 C-2.69 93.33 -0.38 93.66 2 94 C2 93.34 2 92.68 2 92 C-0.31 92 -2.62 92 -5 92 Z M25 92 C24.34 92.66 23.68 93.32 23 94 C23.99 94.33 24.98 94.66 26 95 C26.33 94.01 26.66 93.02 27 92 C26.34 92 25.68 92 25 92 Z " fill="#F5F6F6" transform="translate(61,171)"/>
<path d="M0 0 C6.105 -0.2475 12.21 -0.495 18.5 -0.75 C20.41103516 -0.85924805 22.32207031 -0.96849609 24.29101562 -1.08105469 C36.03914586 -1.465787 36.03914586 -1.465787 39.62744141 1.21655273 C42.5341465 4.40114254 44.377775 8.0396874 46 12 C46.72183472 10.61796387 46.72183472 10.61796387 47.45825195 9.20800781 C49.36792422 5.6652867 51.1617673 2.86757927 54 0 C58.49908595 -1.04653767 62.46654058 -0.74636222 67 0 C66.00536043 1.75305223 65.00385856 3.50221054 64 5.25 C63.36835938 6.35730469 62.73671875 7.46460938 62.0859375 8.60546875 C60 12 60 12 57.7890625 14.80078125 C50.78348427 23.74111303 50.81697516 32.06426573 51 43 C47.37 43 43.74 43 40 43 C40.15082031 41.84886719 40.30164063 40.69773437 40.45703125 39.51171875 C41.76483301 24.66848315 36.27833849 16.21638751 27 5 C26.67 6.65 26.34 8.3 26 10 C21.05 9.67 16.1 9.34 11 9 C11.33 10.98 11.66 12.96 12 15 C11.67 15.66 11.34 16.32 11 17 C15.62 17 20.24 17 25 17 C25 19.97 25 22.94 25 26 C20.38 26 15.76 26 11 26 C11 31.61 11 37.22 11 43 C7.04 43 3.08 43 -1 43 C-0.67 28.81 -0.34 14.62 0 0 Z " fill="#E4E4E4" transform="translate(341,220)"/>
<path d="M0 0 C3.3 0 6.6 0 10 0 C10 11.22 10 22.44 10 34 C15.55007592 33.63161868 15.55007592 33.63161868 21.09936523 33.25170898 C23.06417779 33.12857736 25.03232325 33.06243396 27 33 C27.495 33.495 27.495 33.495 28 34 C28.33 22.78 28.66 11.56 29 0 C32.63 0 36.26 0 40 0 C40 14.19 40 28.38 40 43 C35.71 43 31.42 43 27 43 C26.505 40.525 26.505 40.525 26 38 C25.67 39.65 25.34 41.3 25 43 C16.75 43 8.5 43 0 43 C0 28.81 0 14.62 0 0 Z " fill="#F9FAFA" transform="translate(296,220)"/>
<path d="M0 0 C0.99386719 0.00902344 1.98773438 0.01804688 3.01171875 0.02734375 C4.15060547 0.04474609 4.15060547 0.04474609 5.3125 0.0625 C5.3125 3.0325 5.3125 6.0025 5.3125 9.0625 C2.3425 9.0625 -0.6275 9.0625 -3.6875 9.0625 C-3.6875 29.5225 -3.6875 49.9825 -3.6875 71.0625 C5.5525 71.0625 14.7925 71.0625 24.3125 71.0625 C33.17644888 72.71028537 40.97780471 74.85896624 49.3125 78.0625 C49.3125 78.3925 49.3125 78.7225 49.3125 79.0625 C41.94981904 79.15523534 34.58726427 79.22628235 27.22411728 79.26974869 C23.8049632 79.29061201 20.38620906 79.31890505 16.96728516 79.36425781 C13.03553069 79.41608618 9.10393743 79.43545578 5.171875 79.453125 C3.33263458 79.48409271 3.33263458 79.48409271 1.45623779 79.51568604 C0.31535706 79.51598816 -0.82552368 79.51629028 -2.00097656 79.51660156 C-3.00469299 79.52548401 -4.00840942 79.53436646 -5.0425415 79.54351807 C-8.53455738 78.90845225 -9.65997963 77.96310846 -11.6875 75.0625 C-12.18870544 71.95092773 -12.18870544 71.95092773 -12.18920898 68.24609375 C-12.19461197 67.56918488 -12.20001495 66.892276 -12.20558167 66.19485474 C-12.21806402 63.96278832 -12.20158316 61.73201314 -12.18359375 59.5 C-12.18374875 57.94588147 -12.18523793 56.39176256 -12.18800354 54.83764648 C-12.1893873 51.58267093 -12.17683393 48.32813614 -12.15405273 45.07324219 C-12.12566774 40.90339438 -12.12840551 36.73427883 -12.14114285 32.56437683 C-12.14810172 29.35585285 -12.14030844 26.14749778 -12.12788582 22.93899536 C-12.12337332 21.40162809 -12.12303277 19.86424268 -12.12695122 18.32687378 C-12.1298656 16.17717394 -12.11334748 14.02847901 -12.09155273 11.87890625 C-12.08614975 10.65631104 -12.08074677 9.43371582 -12.07518005 8.17407227 C-11.65563553 4.80675151 -11.08506725 3.42289447 -8.6875 1.0625 C-5.53819107 0.01273036 -3.29935544 -0.03881595 0 0 Z " fill="#F3F4F4" transform="translate(40.6875,195.9375)"/>
<path d="M0 0 C2.97 0 5.94 0 9 0 C9.09281004 7.34540978 9.1638202 14.69069248 9.20724869 22.03657055 C9.22809576 25.44784999 9.25635897 28.85872734 9.30175781 32.26977539 C9.35365959 36.19412369 9.37296922 40.11831096 9.390625 44.04296875 C9.41127014 45.26396774 9.43191528 46.48496674 9.45318604 47.7429657 C9.45363922 49.45417351 9.45363922 49.45417351 9.45410156 51.19995117 C9.46298401 52.20144699 9.47186646 53.20294281 9.48101807 54.23478699 C8.84842852 57.87133406 7.69140449 59.49249949 5 62 C2.27911377 62.63923645 2.27911377 62.63923645 -0.87011719 62.65942383 C-2.05103943 62.67906693 -3.23196167 62.69871002 -4.44866943 62.71894836 C-5.71857727 62.71501572 -6.98848511 62.71108307 -8.296875 62.70703125 C-9.60078186 62.72215256 -10.90468872 62.73727386 -12.24810791 62.75285339 C-15.70711894 62.79268921 -19.16560354 62.80289271 -22.62481689 62.80688477 C-26.15759232 62.81621919 -29.69005878 62.85363443 -33.22265625 62.88867188 C-40.1483936 62.95323233 -47.07398009 62.98648493 -54 63 C-54.495 61.515 -54.495 61.515 -55 60 C-52 59 -52 59 -48.5 58.625 C-44.17783906 58.13330463 -40.15720204 56.98693192 -36.00390625 55.71875 C-24.19915435 52.89420598 -12.03862372 54 0 54 C0 36.18 0 18.36 0 0 Z " fill="#E6E7E7" transform="translate(164,213)"/>
<path d="M0 0 C8.25 0 16.5 0 25 0 C25.33 3.3 25.66 6.6 26 10 C20.72 9.67 15.44 9.34 10 9 C10 11.64 10 14.28 10 17 C11.05960938 16.90460938 12.11921875 16.80921875 13.2109375 16.7109375 C14.59891309 16.59839894 15.98693661 16.48645035 17.375 16.375 C18.07367188 16.31054688 18.77234375 16.24609375 19.4921875 16.1796875 C21.32369111 16.03880261 23.16312748 16.01238341 25 16 C25.66 16.66 26.32 17.32 27 18 C26.53846154 24.46153846 26.53846154 24.46153846 24 27 C20.7421875 26.9765625 20.7421875 26.9765625 16.875 26.625 C15.59367188 26.51414063 14.31234375 26.40328125 12.9921875 26.2890625 C12.00476563 26.19367188 11.01734375 26.09828125 10 26 C10 28.64 10 31.28 10 34 C10.99 33.505 10.99 33.505 12 33 C14.2072923 32.92907158 16.41667452 32.91584975 18.625 32.9375 C19.81351563 32.94652344 21.00203125 32.95554688 22.2265625 32.96484375 C23.14179688 32.97644531 24.05703125 32.98804688 25 33 C26 35 26 35 25 43 C16.75 43 8.5 43 0 43 C0 28.81 0 14.62 0 0 Z M24 18 C24 20.31 24 22.62 24 25 C24.33 25 24.66 25 25 25 C25 22.69 25 20.38 25 18 C24.67 18 24.34 18 24 18 Z " fill="#EEEEEE" transform="translate(236,220)"/>
<path d="M0 0 C8.25 0 16.5 0 25 0 C25 2.97 25 5.94 25 9 C20.05 9 15.1 9 10 9 C10 11.64 10 14.28 10 17 C14.62 17 19.24 17 24 17 C24 19.97 24 22.94 24 26 C19.49048355 27.09321611 14.27999354 28.13999677 10 26 C10 28.64 10 31.28 10 34 C11.485 33.505 11.485 33.505 13 33 C15.06145107 32.931009 17.12501401 32.91532273 19.1875 32.9375 C20.81751953 32.95103516 20.81751953 32.95103516 22.48046875 32.96484375 C23.31191406 32.97644531 24.14335937 32.98804688 25 33 C25 36.3 25 39.6 25 43 C16.75 43 8.5 43 0 43 C0 28.81 0 14.62 0 0 Z " fill="#F1F1F1" transform="translate(266,220)"/>
<path d="M0 0 C0 25.74 0 51.48 0 78 C-7.92 81.96 -7.92 81.96 -16 86 C-23.2673282 90.63815318 -23.2673282 90.63815318 -30.203125 95.73046875 C-32 97 -32 97 -34 97 C-34 95 -34 95 -32 92.875 C-31.55011719 92.44574219 -31.10023437 92.01648438 -30.63671875 91.57421875 C-29.38651837 90.37175872 -28.16497738 89.13943176 -26.95703125 87.89453125 C-26.24933594 87.16621094 -25.54164062 86.43789063 -24.8125 85.6875 C-24.13832031 84.99011719 -23.46414062 84.29273438 -22.76953125 83.57421875 C-21 82 -21 82 -19 82 C-19 81.34 -19 80.68 -19 80 C-16.8828125 78.0546875 -16.8828125 78.0546875 -14.125 75.875 C-12.76761719 74.78832031 -12.76761719 74.78832031 -11.3828125 73.6796875 C-9 72 -9 72 -7 72 C-7.33 51.21 -7.66 30.42 -8 9 C-17.25023044 12.74863544 -17.25023044 12.74863544 -25.9375 17.1875 C-29.22948679 19.06934464 -32.44999906 20.66001753 -36 22 C-27.79034974 13.26069488 -12.77704423 0 0 0 Z " fill="#E4E5E5" transform="translate(141,171)"/>
<path d="M0 0 C0.66 0 1.32 0 2 0 C2 4.29 2 8.58 2 13 C1.67 12.34 1.34 11.68 1 11 C-4.61 10.67 -10.22 10.34 -16 10 C-15.67 11.98 -15.34 13.96 -15 16 C-15.33 16.66 -15.66 17.32 -16 18 C-11.38 17.67 -6.76 17.34 -2 17 C-0.3584951 20.2830098 -1.48111376 23.42545033 -2 27 C-6.62 27 -11.24 27 -16 27 C-16 32.61 -16 38.22 -16 44 C-19.63 44 -23.26 44 -27 44 C-27 29.81 -27 15.62 -27 1 C-14.0625 1.0625 -14.0625 1.0625 -9.97680664 1.09008789 C-8.92356201 1.09258545 -7.87031738 1.09508301 -6.78515625 1.09765625 C-5.70113525 1.10289307 -4.61711426 1.10812988 -3.50024414 1.11352539 C-1.05950052 1.28426897 -1.05950052 1.28426897 0 0 Z " fill="#ECEDED" transform="translate(233,219)"/>
<path d="M0 0 C8.25 0 16.5 0 25 0 C25 2.97 25 5.94 25 9 C20.38 9 15.76 9 11 9 C11.33 10.98 11.66 12.96 12 15 C11.67 15.66 11.34 16.32 11 17 C15.62 17 20.24 17 25 17 C25 19.97 25 22.94 25 26 C20.38 26 15.76 26 11 26 C11 31.61 11 37.22 11 43 C7.04 43 3.08 43 -1 43 C-0.67 28.81 -0.34 14.62 0 0 Z " fill="#E9EAEA" transform="translate(341,220)"/>
<path d="M0 0 C11.49438506 0.89290537 21.75282309 8.30486535 30 16 C30.66 16.99 31.32 17.98 32 19 C26.76189941 17.03571228 21.86006726 14.45641802 16.8828125 11.921875 C16.19960937 11.57640625 15.51640625 11.2309375 14.8125 10.875 C14.20019531 10.56304687 13.58789062 10.25109375 12.95703125 9.9296875 C10.68420865 8.84998335 8.33627386 7.93450954 6 7 C5.67 27.79 5.34 48.58 5 70 C6.32 70.66 7.64 71.32 9 72 C16.87504855 78.36281097 23.90407965 85.79434892 31 93 C30.67 93.66 30.34 94.32 30 95 C29.20078125 94.43152344 28.4015625 93.86304688 27.578125 93.27734375 C15.2037081 83.48158665 15.2037081 83.48158665 1 79 C-1.38155533 75.42766701 -1.27653168 72.91131116 -1.24291992 68.79052734 C-1.24481827 68.06017776 -1.24671661 67.32982819 -1.24867249 66.5773468 C-1.25237716 64.1634345 -1.24168227 61.74982305 -1.23046875 59.3359375 C-1.22927687 57.66110266 -1.2288238 55.98626713 -1.2290802 54.31143188 C-1.22751598 50.80263074 -1.2192296 47.29393171 -1.20581055 43.78515625 C-1.18879458 39.27776029 -1.18499698 34.77047631 -1.18575573 30.26305199 C-1.18548444 26.80592776 -1.18001028 23.34882823 -1.17275429 19.89171219 C-1.16956302 18.22905286 -1.16759915 16.56639072 -1.16686058 14.90372849 C-1.16470333 12.58599784 -1.15597334 10.2683884 -1.14526367 7.95068359 C-1.14571686 7.25768661 -1.14617004 6.56468964 -1.14663696 5.85069275 C-1.1144767 1.1144767 -1.1144767 1.1144767 0 0 Z " fill="#EDEDED" transform="translate(63,173)"/>
<path d="M0 0 C3.96 0 7.92 0 12 0 C12 4.29 12 8.58 12 13 C9.72135417 13.1953125 7.44270833 13.390625 5.1640625 13.5859375 C2.79665809 13.82892588 2.79665809 13.82892588 1 16 C0.69309346 18.57685678 0.48985507 21.04103303 0.375 23.625 C0.25125 26.05875 0.1275 28.4925 0 31 C-6.27 31 -12.54 31 -19 31 C-19 24.73 -19 18.46 -19 12 C-11.125 11.625 -11.125 11.625 -8.64892578 11.52197266 C-4.36288412 11.41504221 -4.36288412 11.41504221 -1 9 C-0.53993654 6.79749008 -0.53993654 6.79749008 -0.375 4.375 C-0.189375 2.209375 -0.189375 2.209375 0 0 Z " fill="#EEEFEE" transform="translate(183,174)"/>
<path d="M0 0 C3.63 0 7.26 0 11 0 C11 14.19 11 28.38 11 43 C6.71 43 2.42 43 -2 43 C-2.495 40.525 -2.495 40.525 -3 38 C-3.495 40.475 -3.495 40.475 -4 43 C-4.33 43 -4.66 43 -5 43 C-5 40.36 -5 37.72 -5 35 C-9.62 35 -14.24 35 -19 35 C-19 34.67 -19 34.34 -19 34 C-16.18780295 33.80615821 -13.37545804 33.61963397 -10.5625 33.4375 C-9.35883789 33.35338867 -9.35883789 33.35338867 -8.13085938 33.26757812 C-6.08937889 33.1383705 -4.04453631 33.0648727 -2 33 C-1.505 33.495 -1.505 33.495 -1 34 C-0.67 22.78 -0.34 11.56 0 0 Z " fill="#EEEFEE" transform="translate(325,220)"/>
<path d="M0 0 C1.051875 -0.00386719 1.051875 -0.00386719 2.125 -0.0078125 C4 0.125 4 0.125 6 1.125 C6 2.445 6 3.765 6 5.125 C7.21558594 5.11339844 8.43117187 5.10179687 9.68359375 5.08984375 C11.26822764 5.08046722 12.85286318 5.07136687 14.4375 5.0625 C15.23994141 5.05412109 16.04238281 5.04574219 16.86914062 5.03710938 C18.91295221 5.0284857 20.95683902 5.0727185 23 5.125 C24 6.125 24 6.125 24.0625 9.1875 C24.041875 10.156875 24.02125 11.12625 24 12.125 C21.65578767 13.29710616 20.26967765 13.25177084 17.65795898 13.25439453 C16.7604039 13.25754669 15.86284882 13.26069885 14.93809509 13.26394653 C13.48180443 13.26091019 13.48180443 13.26091019 11.99609375 13.2578125 C11.0024733 13.25876923 10.00885284 13.25972595 8.98512268 13.26071167 C6.88274065 13.26139286 4.78035652 13.2595428 2.67797852 13.25537109 C-0.55261928 13.25001638 -3.78307839 13.25532105 -7.01367188 13.26171875 C-9.05208364 13.26105807 -11.09049532 13.25977711 -13.12890625 13.2578125 C-14.10179092 13.25983673 -15.0746756 13.26186096 -16.07704163 13.26394653 C-16.97144455 13.26079437 -17.86584747 13.25764221 -18.78735352 13.25439453 C-19.57852066 13.25359894 -20.36968781 13.25280334 -21.18482971 13.25198364 C-23 13.125 -23 13.125 -24 12.125 C-24.125 9.125 -24.125 9.125 -24 6.125 C-23 5.125 -23 5.125 -19.18359375 5.02734375 C-17.60153318 5.03401911 -16.01948841 5.04598125 -14.4375 5.0625 C-13.63119141 5.06701172 -12.82488281 5.07152344 -11.99414062 5.07617188 C-9.99606244 5.08799482 -7.99802217 5.10593086 -6 5.125 C-6 3.805 -6 2.485 -6 1.125 C-3.75487738 0.00243869 -2.48543351 -0.00913762 0 0 Z " fill="#E8E8E8" transform="translate(101,278.875)"/>
<path d="M0 0 C0.33 0 0.66 0 1 0 C1.13494246 2.6058889 1.23402299 5.20482111 1.3125 7.8125 C1.35439453 8.55048828 1.39628906 9.28847656 1.43945312 10.04882812 C1.48828125 12.20703125 1.48828125 12.20703125 1 16 C-1.99220883 18.59360197 -5.35184068 19.59709157 -9.125 20.6875 C-9.97320312 20.93886719 -10.82140625 21.19023437 -11.6953125 21.44921875 C-14 22 -14 22 -17 22 C-20.69418201 23.231394 -22.35109746 25.20791354 -25 28 C-22.525 28.99 -22.525 28.99 -20 30 C-19.67 29.34 -19.34 28.68 -19 28 C-16.69 28 -14.38 28 -12 28 C-11.67 27.34 -11.34 26.68 -11 26 C-7.18015204 25.22188282 -4.73159669 24.75613444 -1 26 C1.33944736 25.71269945 3.6739143 25.38063221 6 25 C6.66 25 7.32 25 8 25 C8.66 24.01 9.32 23.02 10 22 C10.99 23.65 11.98 25.3 13 27 C11.72125 27.12375 10.4425 27.2475 9.125 27.375 C4.66352204 27.85655635 0.34390155 28.70955305 -4.03125 29.6953125 C-5.00578125 29.84613281 -5.00578125 29.84613281 -6 30 C-6.33 29.67 -6.66 29.34 -7 29 C-9.69010247 29.57044584 -12.33662227 30.19781788 -15 30.875 C-30.78814247 34.73728584 -30.78814247 34.73728584 -36 33 C-32.25211334 29.05769847 -28.82378653 25.61862697 -24 23 C-23.34 22.34 -22.68 21.68 -22 21 C-21.01 20.67 -20.02 20.34 -19 20 C-18.34 19.34 -17.68 18.68 -17 18 C-16.01 17.67 -15.02 17.34 -14 17 C-13.505 16.505 -13.01 16.01 -12.5 15.5 C-11 14 -11 14 -8 13 C-4.8125 13.9375 -4.8125 13.9375 -2 15 C-1.67 14.34 -1.34 13.68 -1 13 C-2.32 12.34 -3.64 11.68 -5 11 C-4.01 11 -3.02 11 -2 11 C-1.34 7.37 -0.68 3.74 0 0 Z " fill="#050505" transform="translate(143,238)"/>
<path d="M0 0 C1.32 0.66 2.64 1.32 4 2 C3.01 2.495 3.01 2.495 2 3 C2 28.41 2 53.82 2 80 C1.34 80 0.68 80 0 80 C0 80.66 0 81.32 0 82 C1.65 82.33 3.3 82.66 5 83 C5.33 82.01 5.66 81.02 6 80 C7.60781893 80.7631861 9.21113138 81.53587058 10.8125 82.3125 C12.15248047 82.95638672 12.15248047 82.95638672 13.51953125 83.61328125 C15.80285976 84.88978774 17.19764854 86.1543488 19 88 C19.66 88 20.32 88 21 88 C23 90 23 90 25 93 C17.93333333 92.33333333 17.93333333 92.33333333 15 89 C11.53361143 87.26680571 8.86029048 86.77941197 5 87 C5 86.34 5 85.68 5 85 C2.525 85.495 2.525 85.495 0 86 C0 85.34 0 84.68 0 84 C-1.32 83.67 -2.64 83.34 -4 83 C-4.495 83.99 -4.495 83.99 -5 85 C-5 61.57 -5 38.14 -5 14 C-4.67 14 -4.34 14 -4 14 C-3.67 34.13 -3.34 54.26 -3 75 C-2.01 74.505 -2.01 74.505 -1 74 C-0.67 49.58 -0.34 25.16 0 0 Z " fill="#444444" transform="translate(61,171)"/>
<path d="M0 0 C0.33 0 0.66 0 1 0 C1.13494246 2.6058889 1.23402299 5.20482111 1.3125 7.8125 C1.35439453 8.55048828 1.39628906 9.28847656 1.43945312 10.04882812 C1.48828125 12.20703125 1.48828125 12.20703125 1 16 C-1.99220883 18.59360197 -5.35184068 19.59709157 -9.125 20.6875 C-9.97320312 20.93886719 -10.82140625 21.19023437 -11.6953125 21.44921875 C-14 22 -14 22 -17 22 C-20.33537489 23.11179163 -21.63707344 24.47411298 -24 27 C-24.99 26.67 -25.98 26.34 -27 26 C-22.375 21.125 -22.375 21.125 -19 20 C-18.34 19.34 -17.68 18.68 -17 18 C-16.01 17.67 -15.02 17.34 -14 17 C-13.505 16.505 -13.01 16.01 -12.5 15.5 C-11 14 -11 14 -8 13 C-4.8125 13.9375 -4.8125 13.9375 -2 15 C-1.67 14.34 -1.34 13.68 -1 13 C-2.32 12.34 -3.64 11.68 -5 11 C-4.01 11 -3.02 11 -2 11 C-1.34 7.37 -0.68 3.74 0 0 Z " fill="#070707" transform="translate(143,238)"/>
<path d="M0 0 C0.99 0.33 1.98 0.66 3 1 C4.0061279 8.80009627 4.1862571 16.54775968 4.18530273 24.40698242 C4.18752259 26.4583718 4.2058438 28.50924978 4.22460938 30.56054688 C4.22654297 31.85927734 4.22847656 33.15800781 4.23046875 34.49609375 C4.23457764 35.67357178 4.23868652 36.8510498 4.24291992 38.06420898 C4 41 4 41 2 44 C1.19260511 39.05470627 0.95593273 34.32515164 1 29.3125 C1.07925799 19.52413787 0.53085316 9.77136893 0 0 Z " fill="#000000" transform="translate(336,218)"/>
<path d="M0 0 C0.33 0 0.66 0 1 0 C1 14.19 1 28.38 1 43 C-0.32 42.67 -1.64 42.34 -3 42 C-3 39.69 -3 37.38 -3 35 C-3.33 37.64 -3.66 40.28 -4 43 C-4.33 43 -4.66 43 -5 43 C-5 40.36 -5 37.72 -5 35 C-9.62 35 -14.24 35 -19 35 C-19 34.67 -19 34.34 -19 34 C-16.18780295 33.80615821 -13.37545804 33.61963397 -10.5625 33.4375 C-9.35883789 33.35338867 -9.35883789 33.35338867 -8.13085938 33.26757812 C-6.08937889 33.1383705 -4.04453631 33.0648727 -2 33 C-1.505 33.495 -1.505 33.495 -1 34 C-0.67 22.78 -0.34 11.56 0 0 Z " fill="#838584" transform="translate(325,220)"/>
<path d="M0 0 C1.97725028 0.9227168 3.92510832 1.89600874 5.875 2.875 C4.76705078 3.31199219 4.76705078 3.31199219 3.63671875 3.7578125 C-2.70700494 6.32109603 -8.71159778 9.14697671 -14.65234375 12.54296875 C-17.09115248 13.85676619 -19.53540708 14.89753291 -22.125 15.875 C-17.85647704 11.33108846 -13.11296821 7.60275716 -8.125 3.875 C-7.53976563 3.42253906 -6.95453125 2.97007812 -6.3515625 2.50390625 C-2.71981581 -0.15998917 -2.71981581 -0.15998917 0 0 Z " fill="#C2C4C3" transform="translate(127.125,177.125)"/>
<path d="M0 0 C4.38301834 0.48700204 8.25865465 1.83823107 12.375 3.375 C12.375 2.715 12.375 2.055 12.375 1.375 C15.015 1.705 17.655 2.035 20.375 2.375 C20.375 3.035 20.375 3.695 20.375 4.375 C23.675 5.035 26.975 5.695 30.375 6.375 C30.375 6.705 30.375 7.035 30.375 7.375 C29.18003906 7.24222656 27.98507813 7.10945313 26.75390625 6.97265625 C25.93164551 6.88129395 25.10938477 6.78993164 24.26220703 6.69580078 C13.89770508 5.54418945 13.89770508 5.54418945 3.53320312 4.39257812 C1.76686523 4.19631836 1.76686523 4.19631836 -0.03515625 3.99609375 C-1.10902588 3.8767749 -2.18289551 3.75745605 -3.28930664 3.63452148 C-4.44547485 3.50605835 -4.44547485 3.50605835 -5.625 3.375 C-2.953125 0.421875 -2.953125 0.421875 0 0 Z " fill="#080909" transform="translate(50.625,261.625)"/>
<path d="M0 0 C0.66 0.33 1.32 0.66 2 1 C-1.63 4.63 -5.26 8.26 -9 12 C-8.67 12.66 -8.34 13.32 -8 14 C-9.6209213 15.17232685 -11.24686833 16.3377077 -12.875 17.5 C-13.77992187 18.1496875 -14.68484375 18.799375 -15.6171875 19.46875 C-18 21 -18 21 -20 21 C-20 19 -20 19 -18 16.875 C-17.55011719 16.44574219 -17.10023437 16.01648438 -16.63671875 15.57421875 C-15.38651837 14.37175872 -14.16497738 13.13943176 -12.95703125 11.89453125 C-11.89548828 10.80205078 -11.89548828 10.80205078 -10.8125 9.6875 C-9.80123047 8.64142578 -9.80123047 8.64142578 -8.76953125 7.57421875 C-7 6 -7 6 -5 6 C-5 5.34 -5 4.68 -5 4 C-3.37373596 2.61767557 -1.7074998 1.28062485 0 0 Z " fill="#A1A2A1" transform="translate(127,247)"/>
<path d="M0 0 C2.33944736 0.28730055 4.6739143 0.61936779 7 1 C7 3.31 7 5.62 7 8 C4.36 8 1.72 8 -1 8 C-1.04241723 5.66705225 -1.04092937 3.33297433 -1 1 C-0.67 0.67 -0.34 0.34 0 0 Z " fill="#D9DADA" transform="translate(175,165)"/>
<path d="M0 0 C0.33 0 0.66 0 1 0 C1 9.24 1 18.48 1 28 C-1 26 -1 26 -1.24291992 23.49389648 C-1.23881104 22.46337158 -1.23470215 21.43284668 -1.23046875 20.37109375 C-1.22853516 19.25412109 -1.22660156 18.13714844 -1.22460938 16.98632812 C-1.21236328 15.81521484 -1.20011719 14.64410156 -1.1875 13.4375 C-1.18685547 12.26251953 -1.18621094 11.08753906 -1.18554688 9.87695312 C-1.14012141 1.14012141 -1.14012141 1.14012141 0 0 Z " fill="#000000" transform="translate(59,188)"/>
<path d="M0 0 C8.25 0 16.5 0 25 0 C25.33 3.3 25.66 6.6 26 10 C20.72 9.67 15.44 9.34 10 9 C10 8.67 10 8.34 10 8 C14.62 8 19.24 8 24 8 C24 5.69 24 3.38 24 1 C16.08 1 8.16 1 0 1 C0 0.67 0 0.34 0 0 Z " fill="#B9BABA" transform="translate(236,220)"/>
<path d="M0 0 C3.74217391 1.33128665 6.57380269 2.97931791 9.6875 5.4375 C10.45449219 6.03433594 11.22148438 6.63117188 12.01171875 7.24609375 C14 9 14 9 16 12 C11.85967154 10.45614871 8.06446947 8.48971062 4.1875 6.375 C3.59001953 6.05015625 2.99253906 5.7253125 2.37695312 5.390625 C0.91662865 4.59620849 -0.54187491 3.79844624 -2 3 C-1.34 2.67 -0.68 2.34 0 2 C0 1.34 0 0.68 0 0 Z " fill="#9D9F9E" transform="translate(79,180)"/>
<path d="M0 0 C1.32 1.65 2.64 3.3 4 5 C2.72125 5.12375 1.4425 5.2475 0.125 5.375 C-4.98644221 5.93571465 -9.97606474 6.91969659 -15 8 C-14.34 7.67 -13.68 7.34 -13 7 C-13 6.34 -13 5.68 -13 5 C-8.8803623 3.70756464 -5.33168317 2.73747375 -1 3 C-0.67 2.01 -0.34 1.02 0 0 Z " fill="#040404" transform="translate(152,260)"/>
<path d="M0 0 C2.46800047 1.15173355 4.04783565 2.04783565 6 4 C-2.42857143 7.28571429 -2.42857143 7.28571429 -7 8 C-6.02133662 6.85373678 -5.04205413 5.70800212 -4.0625 4.5625 C-3.51722656 3.92441406 -2.97195312 3.28632813 -2.41015625 2.62890625 C-1.63204305 1.73008851 -0.84063472 0.84063472 0 0 Z " fill="#7C7E7D" transform="translate(114,264)"/>
<path d="M0 0 C0 4.29 0 8.58 0 13 C-0.33 12.34 -0.66 11.68 -1 11 C-1.99 10.67 -2.98 10.34 -4 10 C-4 7.03 -4 4.06 -4 1 C-2 0 -2 0 0 0 Z " fill="#181918" transform="translate(235,219)"/>
<path d="M0 0 C2.31 0 4.62 0 7 0 C7 0.66 7 1.32 7 2 C10.3 2.66 13.6 3.32 17 4 C17 4.33 17 4.66 17 5 C10.85845775 4.41509121 4.99320151 3.45933748 -1 2 C-0.67 1.34 -0.34 0.68 0 0 Z " fill="#030303" transform="translate(64,264)"/>
<path d="M0 0 C2 1 2 1 3 3 C1.04754815 4.19714555 -0.91214997 5.38248074 -2.875 6.5625 C-3.96554688 7.22378906 -5.05609375 7.88507813 -6.1796875 8.56640625 C-7.11039062 9.03949219 -8.04109375 9.51257813 -9 10 C-9.66 9.67 -10.32 9.34 -11 9 C-7.37 6.03 -3.74 3.06 0 0 Z " fill="#878988" transform="translate(116,183)"/>
<path d="M0 0 C2.31 0 4.62 0 7 0 C6.67 1.65 6.34 3.3 6 5 C4.68 5 3.36 5 2 5 C1.34 3.35 0.68 1.7 0 0 Z " fill="#000000" transform="translate(165,207)"/>
<path d="M0 0 C0.33 0.99 0.66 1.98 1 3 C2.3153341 3.70151152 3.65117592 4.36525925 5 5 C6.75 6.625 6.75 6.625 8 8 C4.44219804 7.39009109 1.3171411 6.4216319 -2 5 C-1.34 4.67 -0.68 4.34 0 4 C0 2.68 0 1.36 0 0 Z " fill="#747675" transform="translate(87,264)"/>
<path d="M0 0 C0.66 0.66 1.32 1.32 2 2 C1.96712417 4.72869407 1.43602229 7.2966618 1 10 C0.67 10 0.34 10 0 10 C0 7.36 0 4.72 0 2 C-4.29 2 -8.58 2 -13 2 C-13 1.67 -13 1.34 -13 1 C-10.87631556 0.77865824 -8.75095976 0.57329993 -6.625 0.375 C-5.44164062 0.25898438 -4.25828125 0.14296875 -3.0390625 0.0234375 C-2.03617188 0.01570312 -1.03328125 0.00796875 0 0 Z " fill="#7E807F" transform="translate(230,236)"/>
<path d="M0 0 C1.79244141 0.01740234 1.79244141 0.01740234 3.62109375 0.03515625 C5.41740234 0.04869141 5.41740234 0.04869141 7.25 0.0625 C8.17683594 0.07410156 9.10367187 0.08570313 10.05859375 0.09765625 C8.05859375 2.09765625 8.05859375 2.09765625 6.0703125 2.15234375 C5.30332031 2.09304687 4.53632813 2.03375 3.74609375 1.97265625 C0.06347088 1.86574139 -0.76270949 1.98095633 -4.00390625 4.09765625 C-4.64328125 4.75765625 -5.28265625 5.41765625 -5.94140625 6.09765625 C-3.64266867 0.12093853 -3.64266867 0.12093853 0 0 Z " fill="#B7B9B8" transform="translate(397.94140625,219.90234375)"/>
<path d="M0 0 C0 0.66 0 1.32 0 2 C-4.455 2.495 -4.455 2.495 -9 3 C-6.27596221 -1.08605669 -4.4643819 -1.38549783 0 0 Z " fill="#101010" transform="translate(139,264)"/>
<path d="M0 0 C0.66 0.33 1.32 0.66 2 1 C2 1.99 2 2.98 2 4 C2.66 4 3.32 4 4 4 C4 4.66 4 5.32 4 6 C2.68 6.33 1.36 6.66 0 7 C-0.38133299 5.0085944 -0.71325582 3.00720923 -1 1 C-0.67 0.67 -0.34 0.34 0 0 Z " fill="#010101" transform="translate(59,245)"/>
<path d="M0 0 C0.66 0 1.32 0 2 0 C2.33 2.97 2.66 5.94 3 9 C1.68 8.34 0.36 7.68 -1 7 C-0.67 4.69 -0.34 2.38 0 0 Z " fill="#000000" transform="translate(292,237)"/>
<path d="M0 0 C2.31 1.98 4.62 3.96 7 6 C6.67 6.66 6.34 7.32 6 8 C3.69 6.35 1.38 4.7 -1 3 C-0.67 2.01 -0.34 1.02 0 0 Z " fill="#9FA2A1" transform="translate(87,260)"/>
<path d="M0 0 C1.32 0.33 2.64 0.66 4 1 C4.33 3.97 4.66 6.94 5 10 C4.01 9.67 3.02 9.34 2 9 C2.04125 7.88625 2.0825 6.7725 2.125 5.625 C2.41121859 1.95633975 2.41121859 1.95633975 0 0 Z " fill="#000000" transform="translate(320,253)"/>
<path d="M0 0 C1.32 0.33 2.64 0.66 4 1 C4 3.64 4 6.28 4 9 C3.01 8.67 2.02 8.34 1 8 C1.33 5.69 1.66 3.38 2 1 C1.34 0.67 0.68 0.34 0 0 Z " fill="#000000" transform="translate(261,219)"/>
<path d="M0 0 C2.475 0.99 2.475 0.99 5 2 C4.67 2.66 4.34 3.32 4 4 C1.03 3.505 1.03 3.505 -2 3 C-1.34 2.67 -0.68 2.34 0 2 C0 1.34 0 0.68 0 0 Z " fill="#C6C8C7" transform="translate(79,180)"/>
<path d="M0 0 C0.66 0 1.32 0 2 0 C2 3.3 2 6.6 2 10 C0 8 0 8 -0.1953125 6.0546875 C-0.13020833 4.03645833 -0.06510417 2.01822917 0 0 Z " fill="#000000" transform="translate(47,197)"/>
<path d="M0 0 C1.61949011 2.57213134 2.04408751 3.67669159 1.625 6.75 C1.41875 7.4925 1.2125 8.235 1 9 C0.34 8.67 -0.32 8.34 -1 8 C-0.67 5.36 -0.34 2.72 0 0 Z " fill="#000000" transform="translate(293,220)"/>
<path d="M0 0 C0.33 0 0.66 0 1 0 C1.33 2.64 1.66 5.28 2 8 C1.34 7.67 0.68 7.34 0 7 C0 4.69 0 2.38 0 0 Z " fill="#000000" transform="translate(263,255)"/>
<path d="M0 0 C0.33 0 0.66 0 1 0 C1.33 2.31 1.66 4.62 2 7 C1.34 7 0.68 7 0 7 C0 4.69 0 2.38 0 0 Z " fill="#000000" transform="translate(293,256)"/>
<path d="M0 0 C1.65 0 3.3 0 5 0 C4.34 0.66 3.68 1.32 3 2 C2.01 1.34 1.02 0.68 0 0 Z " fill="#000000" transform="translate(285,231)"/>
<path d="M0 0 C4 1 4 1 4 1 Z " fill="#000000" transform="translate(256,231)"/>
<path d="M0 0 C0.66 0 1.32 0 2 0 C1.67 0.99 1.34 1.98 1 3 C0.67 2.01 0.34 1.02 0 0 Z " fill="#000000" transform="translate(180,175)"/>
<path d="M0 0 C3 1 3 1 3 1 Z " fill="#000000" transform="translate(109,281)"/>
<path d="M0 0 C2 1 2 1 2 1 Z " fill="#000000" transform="translate(114,281)"/>
<path d="M0 0 C2 1 2 1 2 1 Z " fill="#000000" transform="translate(81,269)"/>
<path d="M0 0 C2 1 2 1 2 1 Z " fill="#000000" transform="translate(138,251)"/>
<path d="" fill="#000000" transform="translate(0,0)"/>
<path d="" fill="#000000" transform="translate(0,0)"/>
<path d="" fill="#000000" transform="translate(0,0)"/>
<path d="" fill="#000000" transform="translate(0,0)"/>
<path d="" fill="#000000" transform="translate(0,0)"/>
<path d="" fill="#000000" transform="translate(0,0)"/>
<path d="" fill="#000000" transform="translate(0,0)"/>
<path d="" fill="#2C332C" transform="translate(0,0)"/>
</svg>
